<svg xmlns="http://www.w3.org/2000/svg" xmlns:xlink="http://www.w3.org/1999/xlink" preserveAspectRatio="xMidYMid" width="2043.406" height="2042.5" viewBox="0 0 2043.406 2042.5">
  <defs>
    <style>
      .cls-1 {
        fill: #eae3dc;
        fill-rule: evenodd;
      }
    </style>
  </defs>
  <path d="M2023.906,649.500 C1959.810,860.856 1804.137,1107.802 1712.964,1266.433 C1664.031,1351.571 1590.305,1426.525 1385.837,1432.668 C1229.235,1437.373 977.070,1439.887 557.906,1427.500 C302.718,1419.959 277.906,1104.500 277.906,1104.500 C278.195,1092.383 212.157,206.765 170.906,206.500 C-90.735,204.817 -4.670,0.500 121.906,0.500 C318.257,0.500 366.893,116.351 378.567,171.546 C404.780,295.482 407.066,334.804 409.906,333.500 C454.929,312.827 474.804,312.048 535.906,311.500 C751.425,309.567 1580.036,309.142 1825.906,305.500 C2004.451,302.855 2081.975,458.022 2023.906,649.500 ZM558.906,1534.500 C699.187,1534.500 812.906,1648.220 812.906,1788.500 C812.906,1928.780 699.187,2042.500 558.906,2042.500 C418.626,2042.500 304.906,1928.780 304.906,1788.500 C304.906,1648.220 418.626,1534.500 558.906,1534.500 ZM1482.906,1534.500 C1623.187,1534.500 1736.906,1648.220 1736.906,1788.500 C1736.906,1928.780 1623.187,2042.500 1482.906,2042.500 C1342.626,2042.500 1228.906,1928.780 1228.906,1788.500 C1228.906,1648.220 1342.626,1534.500 1482.906,1534.500 Z" class="cls-1"/>
</svg>
