<svg xmlns="http://www.w3.org/2000/svg" xmlns:xlink="http://www.w3.org/1999/xlink" preserveAspectRatio="xMidYMid" width="2016" height="1692" viewBox="0 0 2016 1692">
  <defs>
    <style>
      .cls-1 {
        fill: #eae3dc;
        fill-rule: evenodd;
      }
    </style>
  </defs>
  <path d="M1996.000,1692.000 L20.000,1692.000 C8.954,1692.000 -0.000,1683.046 -0.000,1672.000 L-0.000,1435.000 C-0.000,1423.954 8.954,1415.000 20.000,1415.000 L1996.000,1415.000 C2007.046,1415.000 2016.000,1423.954 2016.000,1435.000 L2016.000,1672.000 C2016.000,1683.046 2007.046,1692.000 1996.000,1692.000 ZM1996.000,981.000 L20.000,981.000 C8.954,981.000 -0.000,972.046 -0.000,961.000 L-0.000,724.000 C-0.000,712.954 8.954,704.000 20.000,704.000 L1996.000,704.000 C2007.046,704.000 2016.000,712.954 2016.000,724.000 L2016.000,961.000 C2016.000,972.046 2007.046,981.000 1996.000,981.000 ZM1996.000,277.000 L20.000,277.000 C8.954,277.000 -0.000,268.046 -0.000,257.000 L-0.000,20.000 C-0.000,8.954 8.954,-0.000 20.000,-0.000 L1996.000,-0.000 C2007.046,-0.000 2016.000,8.954 2016.000,20.000 L2016.000,257.000 C2016.000,268.046 2007.046,277.000 1996.000,277.000 Z" class="cls-1"/>
</svg>
