<svg xmlns="http://www.w3.org/2000/svg" xmlns:xlink="http://www.w3.org/1999/xlink" preserveAspectRatio="xMidYMid" width="434" height="314" viewBox="0 0 434 314">
  <defs>
    <style>
      .cls-1 {
        fill: #121723;
        fill-rule: evenodd;
      }
    </style>
  </defs>
  <path d="M379.724,224.343 C373.397,223.266 368.131,220.983 363.853,217.354 C359.055,265.311 315.987,311.980 218.439,312.000 L213.038,312.000 C115.909,312.000 73.392,265.881 68.472,218.188 C64.515,221.060 59.801,222.923 54.276,223.864 C28.489,228.252 2.121,200.576 2.000,166.444 C1.874,130.980 29.208,107.508 53.367,113.665 C59.430,115.210 64.617,117.501 68.930,120.851 C84.283,79.269 109.873,52.128 154.986,39.903 C162.979,30.634 173.683,26.440 177.694,19.288 C186.227,4.073 207.906,35.453 215.361,9.212 C221.439,-12.181 259.018,19.492 264.697,33.092 C265.282,34.495 265.643,35.777 265.828,36.964 C318.801,47.660 347.449,76.289 363.974,122.217 C368.493,118.376 374.048,115.822 380.632,114.144 C404.792,107.987 432.126,131.459 432.000,166.924 C431.879,201.055 405.511,228.731 379.724,224.343 ZM315.277,174.500 C308.733,161.617 314.776,156.500 314.776,156.500 C356.573,108.166 266.071,44.626 225.019,101.000 C220.557,107.126 208.283,106.297 202.967,100.500 C154.418,47.550 79.803,109.863 119.219,156.000 C123.615,161.146 120.440,172.758 119.720,174.500 C56.811,326.695 388.619,318.866 315.277,174.500 ZM276.498,157.000 C263.885,157.105 259.669,148.617 259.669,135.500 C259.669,122.383 261.721,110.500 274.334,110.500 C286.948,110.500 292.258,122.913 291.404,136.000 C290.548,149.100 285.293,156.927 276.498,157.000 ZM218.727,248.922 C206.915,248.809 194.038,236.771 196.193,223.042 C198.051,211.206 205.341,199.844 217.469,199.844 C229.573,199.844 237.815,206.531 241.000,221.000 C244.239,235.716 230.832,249.039 218.727,248.922 ZM229.145,165.133 C224.340,164.648 221.046,164.412 220.322,162.294 C220.245,162.134 220.184,161.955 220.160,161.730 C219.867,159.058 223.851,153.729 229.069,154.256 C234.286,154.784 238.762,160.967 239.054,163.640 C239.074,163.817 239.070,163.966 239.049,164.095 C238.732,166.232 234.042,165.628 229.145,165.133 ZM210.678,162.294 C209.954,164.412 206.660,164.648 201.855,165.133 C196.958,165.628 192.268,166.232 191.951,164.095 C191.930,163.966 191.926,163.817 191.945,163.640 C192.238,160.967 196.714,154.784 201.931,154.256 C207.149,153.729 211.133,159.058 210.840,161.730 C210.816,161.955 210.755,162.134 210.678,162.294 ZM157.001,157.000 C148.206,156.927 142.951,149.100 142.095,136.000 C141.240,122.913 146.551,110.500 159.164,110.500 C171.778,110.500 173.829,122.383 173.829,135.500 C173.829,148.617 169.614,157.105 157.001,157.000 Z" class="cls-1"/>
</svg>
